<svg version="1.2" xmlns="http://www.w3.org/2000/svg" viewBox="0 0 1640 664" width="1640" height="664"><style>.a{fill:#cb0000}.b{fill:#fff}</style><path  d="m198.3 314q-0.1 22.5 5.9 44 6 21 18 37.5 12.5 16.5 30.5 26.5 18.5 9.5 43.5 9.5 16 0 32.5-3.5 16.5-3.5 32.5-9 16-5.5 30.5-12 15-6.5 28-12.5v79.5q-10.5 3-22.5 7.5-11.5 4.5-27 8.5-15.5 3.5-35.5 6.5-20 2.5-47.5 2.5-42 0-76-13-33.5-13-57-37.5-23.5-24.5-36.5-59-12.5-35-12.5-78.5 0-41.5 12.5-75.5 13-34 36.5-58 23.5-24.5 57-37.5 34-13.5 76-13.5 27.5 0 47.5 3 20 2.5 35.5 6.5 15.5 3.5 27 8 12 4 22.5 7.5v79q-13-5.5-28-12-14.5-6.5-30.5-11.5-16-5.5-32.5-9-16.5-3.5-32.5-3.5-25 0-43.5 10.5-18 10-30.5 27-12 17-18 38.5-6 21-6 43.5zm339.6 101q-0.1 16 10.4 23 10.5 6.5 25 6.5 17 0 29-1.5 12.5-2 19.5-4.5v-61q-4 0-11 0.5-6.5 0.5-14 1-7 0.5-14 1.5-6.5 1-10 1.5-14.5 3.5-25 10.5-10 7-10 22.5zm-64.5-107.5v-63.5q11-3.5 27.5-6.5 16.5-3.5 33.5-6 17.5-3 33-4.5 16-2 26-2 21.5 0 42 3.5 20.5 3 36.5 12.5 16 9.5 25.5 26.5 10 17 10 44.5v170q0 0-9.5 3-9 2.5-26 6-16.5 3-40.5 5.5-23.5 2.5-52.5 2.5-25 0-47-2.5-22-2.5-39-10.5-17-8.5-28-23.5-10.5-15.5-12-41.5-1.5-23.5 7.5-39 9-16 24-26 15.5-10.5 35-16.5 20-6 40-9.5 8.5-1.5 18.5-3 10-1.5 19-2.5 9-1 15.5-1.5 7-0.5 9-0.5v-7.5q0-12-2.5-19-2.5-7-8-10.5-5-3.5-13-4.5-7.5-1-18-1-12 0-27 3-15 3-30 7.5-15 4-28 9-13 4.5-21.5 8zm291.5 184.5v-241.5q15-7.5 35-13 17.5-5 43-9 25.5-4 59.5-4 7.5 0 16 1 9 0.5 16.5 1.5 7.5 0.5 12 1.5 5 1 4.5 1v59q-3.5-1.5-10-3-6-1.5-13.5-2.5-7.5-1-16-1.5-8-1-14.5-1-11 0-20 2.5-8.5 2-15 4.5-6 2.5-9.5 5-3 2-3 2.5v197z"/><path class="a" d="m967.3 651.8h322.3v-603h-322.3zm313 0h276.5v-603h-276.5z"/><path class="b" d="m1180.8 349.5q0-12-2-24.5-2-13-8.5-23.5-6.5-10.5-18-17.5-11.5-7-31-7-7.5 0-15 2-7 1.5-12.5 4-6.5 2.5-12.5 5.5v140.5q6.5 4.5 14 7.5 6.5 2.5 15 4.5 8.5 2 18 0 17.5-3 27.5-12.5 10.5-10 16-23 5.5-13 7-27.5 2-15 2-28.5zm-185 119.5v-336.5h85v100.5q6-3 14.5-5.5 7-2.5 17-4 10-2 22-2 38.5 0 63.5 10.5 25.5 10.5 40.5 28.5 15 17.5 21 40.5 6 23 6 48.5 0 27.5-7 54-6.5 26-22 47-15.5 20.5-40 33.5-24.5 12.5-60 12.5-33.5 0.5-59.5-3.5-26-4.5-44-10-21-6-37-14zm369-0.5q-1.5-5-5.5-15.5-4-11-13.5-36-9-25.5-25.5-70-16.5-44.5-43.5-117.5h90l49 169h1l49-169h87l-87 233q-9.5 25.5-19 44.5-9 18.5-20 33-11 14-25 26-14 11.5-33.5 23l-59.5-52.5q11.5-5 23-12.5 11.5-7.5 20-16.5 8.5-9 12.5-18.5 4-10 0.5-20.5z"/></svg>